<svg xmlns="http://www.w3.org/2000/svg" viewBox="0 0 512 512">
  <defs>
    <linearGradient id="bg" x1="0%" y1="0%" x2="100%" y2="100%">
      <stop offset="0%" style="stop-color:#1e66f5"/>
      <stop offset="100%" style="stop-color:#7c3aed"/>
    </linearGradient>
  </defs>
  <rect width="512" height="512" rx="96" fill="url(#bg)"/>
  <g transform="translate(80, 80)" fill="none" stroke="white" stroke-width="16" stroke-linecap="round" stroke-linejoin="round">
    <!-- Document shape -->
    <path d="M40 0 H260 L340 80 V340 Q340 352 328 352 H40 Q28 352 28 340 V12 Q28 0 40 0 Z" fill="rgba(255,255,255,0.15)" stroke="white" stroke-width="12"/>
    <!-- Fold corner -->
    <path d="M260 0 V68 Q260 80 272 80 H340" fill="rgba(255,255,255,0.1)" stroke="white" stroke-width="10"/>
    <!-- Code lines -->
    <line x1="80" y1="130" x2="200" y2="130" stroke-width="14" opacity="0.9"/>
    <line x1="100" y1="170" x2="260" y2="170" stroke-width="14" opacity="0.7"/>
    <line x1="100" y1="210" x2="220" y2="210" stroke-width="14" opacity="0.7"/>
    <line x1="80" y1="250" x2="180" y2="250" stroke-width="14" opacity="0.9"/>
    <line x1="100" y1="290" x2="240" y2="290" stroke-width="14" opacity="0.7"/>
    <!-- ++ symbol -->
    <g transform="translate(282, 270)" stroke="white" stroke-width="14">
      <line x1="0" y1="20" x2="40" y2="20"/>
      <line x1="20" y1="0" x2="20" y2="40"/>
      <line x1="50" y1="20" x2="90" y2="20"/>
      <line x1="70" y1="0" x2="70" y2="40"/>
    </g>
  </g>
</svg>
